PathFileType	4	(X/Y/Z)	s01c0101.trc
DataRate	CameraRate	NumFrames	NumMarkers	Units	OrigDataRate	OrigDataStartFrame	OrigNumFrames
200	200	4	47	mm	200	0	2000
Frame#	Time	racr			lacr			c7			jug			rlel			rdr			llel			ldr			s2			lic			ric			lasi			rasi			rpsi			lpsi			rgt			lgt			rth1			rth2			rth3			rth4			rlfc			rsh1			rsh2			rsh3			rsh4			rlmal			rmmal			rcal			rtoe			rmt5			lth1			lth2			lth4			lth3			llfc			lsh1			lsh2			lsh3			lsh4			llmal			lcal			ltoe			lmt5			SBIKE			LBIKE			RBIKE			
		X1	Y1	Z1	X2	Y2	Z2	X3	Y3	Z3	X4	Y4	Z4	X5	Y5	Z5	X6	Y6	Z6	X7	Y7	Z7	X8	Y8	Z8	X9	Y9	Z9	X10	Y10	Z10	X11	Y11	Z11	X12	Y12	Z12	X13	Y13	Z13	X14	Y14	Z14	X15	Y15	Z15	X16	Y16	Z16	X17	Y17	Z17	X18	Y18	Z18	X19	Y19	Z19	X20	Y20	Z20	X21	Y21	Z21	X22	Y22	Z22	X23	Y23	Z23	X24	Y24	Z24	X25	Y25	Z25	X26	Y26	Z26	X27	Y27	Z27	X28	Y28	Z28	X29	Y29	Z29	X30	Y30	Z30	X31	Y31	Z31	X32	Y32	Z32	X33	Y33	Z33	X34	Y34	Z34	X35	Y35	Z35	X36	Y36	Z36	X37	Y37	Z37	X38	Y38	Z38	X39	Y39	Z39	X40	Y40	Z40	X41	Y41	Z41	X42	Y42	Z42	X43	Y43	Z43	X44	Y44	Z44	X45	Y45	Z45	X46	Y46	Z46	X47	Y47	Z47	
0	0.0000	498.813642	1348.785039	-145.410969	495.627274	1347.843313	-436.122320	433.347203	1394.103456	-281.984830	460.827819	1237.167117	-283.965790	585.200330	1078.098629	-67.610108	722.858675	852.112399	-93.866796	578.615229	1073.039181	-492.745408	715.800287	858.031174	-447.769064	-77.297070	1153.381347	-253.309588	94.979221	1148.360455	-429.219536	93.375232	1137.602101	-108.239418	85.521679	1096.015848	-406.914465	106.661810	1084.952536	-131.308252	-42.347165	1189.562585	-201.712565	-47.823050	1191.833598	-308.501448	14.316730	1024.635851	-70.999611	19.073730	1046.363779	-465.836205	77.176285	898.166469	-59.575889	120.690370	828.225085	-67.370923	161.724996	749.061899	-85.745082	167.708328	855.209036	-81.985076	192.020587	646.004973	-110.823053	131.421265	543.912124	-75.278864	107.728179	462.420584	-76.005179	72.178861	378.785177	-87.971701	152.804189	447.457696	-113.254963	25.327706	258.645215	-104.514867	68.375949	271.897178	-181.335100	-19.165257	225.548779	-160.349978	249.907009	196.559628	-138.106331	142.750506	170.166628	-71.858452	118.176733	976.140776	-475.572561	205.164239	973.218913	-478.739649	209.751023	1027.500251	-468.691269	290.449564	961.698451	-472.084399	391.690402	915.023211	-455.249622	317.064452	826.995344	-470.154772	276.804194	751.064091	-457.312110	236.107052	678.169960	-435.936995	329.203427	728.435452	-432.502910	180.970146	564.536614	-409.607774	129.854667	527.974397	-365.533131	405.796606	509.051942	-384.526695	298.499633	486.876806	-445.452321	0.000000	0.000000	-0.000000	-21.064443	80.423537	-454.032647	-21.425257	80.482236	-53.855092	
1	0.0050	498.832924	1348.730626	-145.461034	495.642273	1347.846633	-436.159709	433.358498	1394.093020	-282.018082	460.847852	1237.184137	-283.986678	585.205557	1078.113682	-67.632638	722.849775	852.134925	-93.833009	578.611175	1073.022214	-492.758663	715.786741	858.032226	-447.780919	-77.304324	1153.365928	-253.327143	94.949134	1148.388899	-429.312751	93.364801	1137.596921	-108.218503	85.514502	1096.007509	-406.932040	106.679825	1084.926753	-131.311095	-42.453193	1189.738562	-201.624437	-47.824337	1191.831324	-308.509826	14.327865	1024.614740	-71.012214	19.077277	1046.381325	-465.839673	77.185824	898.167688	-59.569377	120.688730	828.237483	-67.363380	161.746323	749.082734	-85.742665	167.712088	855.207537	-81.968861	192.024058	646.003775	-110.827263	131.435174	543.915294	-75.279349	107.731466	462.393051	-76.012594	72.177002	378.779636	-87.980236	152.809574	447.457715	-113.242892	25.356185	258.653262	-104.525869	68.301313	271.822763	-181.389863	-19.135088	225.560036	-160.338706	249.918736	196.548472	-138.124902	142.780213	170.174792	-71.846716	118.179040	976.153353	-475.572142	205.167447	973.267708	-478.756643	209.791883	1027.563884	-468.740903	290.463215	961.723587	-472.105539	391.697602	915.025847	-455.248264	317.060151	827.004017	-470.160778	276.794708	751.086062	-457.325643	236.082392	678.188301	-435.946924	329.198425	728.457983	-432.495354	180.967138	564.551675	-409.602662	129.855256	527.979787	-365.524370	405.774181	509.074475	-384.518819	298.489563	486.894869	-445.449292	0.000000	0.000000	-0.000000	-21.057807	80.444015	-454.040019	-21.414971	80.452727	-53.859085	
2	0.0100	498.839126	1348.758068	-145.450352	495.642575	1347.842273	-436.182600	433.356444	1394.107081	-282.015605	460.856672	1237.190916	-283.992901	585.216703	1078.119862	-67.664314	722.853555	852.123794	-93.842240	578.618502	1073.003905	-492.758429	715.784571	858.019300	-447.746020	-77.295206	1153.365903	-253.329845	95.004712	1148.301223	-429.409311	93.371982	1137.585573	-108.204693	85.515997	1095.979316	-406.931446	106.709497	1084.884233	-131.288836	-42.460806	1189.742797	-201.628535	-47.828877	1191.820058	-308.513691	14.325412	1024.622203	-70.997058	19.080827	1046.382583	-465.822234	77.189931	898.165182	-59.556364	120.696974	828.240565	-67.353425	161.738048	749.080028	-85.738276	167.718566	855.207255	-81.973025	192.047665	645.989206	-110.838586	131.457845	543.898961	-75.283318	107.737918	462.400921	-75.999594	72.184852	378.762263	-87.964568	152.812176	447.458366	-113.241798	25.361374	258.639463	-104.526457	68.341759	271.793855	-181.367411	-19.130136	225.541127	-160.339045	249.928743	196.553388	-138.114556	142.767209	170.179623	-71.850665	118.178914	976.166386	-475.568657	205.177829	973.268008	-478.757191	209.775592	1027.556892	-468.731323	290.463938	961.726762	-472.112084	391.678691	915.037906	-455.264478	317.058408	827.019461	-470.167173	276.789673	751.105906	-457.318184	236.085815	678.202828	-435.946851	329.198051	728.458955	-432.495752	180.954208	564.560876	-409.597633	129.840592	527.995851	-365.529747	405.765010	509.065380	-384.525542	298.485171	486.897928	-445.438548	0.000000	0.000000	-0.000000	-21.058430	80.461997	-454.045085	-21.403898	80.454702	-53.867518	
3	0.0150	498.866805	1348.761819	-145.467304	495.637980	1347.837460	-436.201572	433.032796	1394.143619	-281.597772	460.891956	1237.203375	-284.018785	585.523688	1078.087697	-67.871023	722.840568	852.136301	-93.829441	578.622545	1072.990080	-492.748494	715.784325	858.020870	-447.727928	-77.294683	1153.351736	-253.330656	94.987192	1148.259368	-429.434370	93.367239	1137.656281	-108.361594	85.511080	1095.955718	-406.922248	107.303324	1084.501192	-130.900185	-42.415964	1189.703302	-201.582387	-47.831500	1191.811105	-308.518257	14.278491	1024.511872	-70.994762	19.113789	1046.314725	-465.860890	77.260760	898.225757	-59.393236	120.718127	828.240417	-67.349567	161.737208	749.073073	-85.724566	167.772869	855.193862	-82.042569	191.718331	646.119787	-110.795607	131.456692	543.896285	-75.282217	107.749286	462.386804	-76.008278	73.706900	379.973918	-86.438629	152.819999	447.449306	-113.248046	25.267179	258.707425	-104.503230	68.441320	271.882980	-181.359269	-19.126906	225.545863	-160.345106	249.950989	196.551489	-138.125364	142.787118	170.156886	-71.859145	118.177990	976.179908	-475.565038	205.193965	973.275212	-478.757001	209.755299	1027.554686	-468.718929	290.464502	961.729873	-472.118992	391.686311	915.046726	-455.254456	317.053235	827.036737	-470.180200	277.583385	750.198516	-460.317625	236.271292	678.249450	-435.954486	329.481179	727.967568	-433.775763	180.937970	564.576671	-409.592445	129.822871	528.018186	-365.536891	405.761783	509.060005	-384.532662	298.479809	486.903764	-445.424422	-229.237946	891.499747	-253.670681	-21.053328	80.432109	-454.040488	-21.423933	80.462266	-53.856340	
